<svg width="100%" height="100%" viewBox="0 0 873.25 176.501" xmlns="http://www.w3.org/2000/svg">
	<g id="svgGroup" stroke-linecap="round" fill-rule="evenodd" font-size="9pt" stroke="#000" stroke-width="0.25mm" fill="none" style="stroke:#fff;stroke-width:0.25mm;fill:lime;">
		<path d="M 122 14.5 L 121.75 14.5 A 78.701 78.701 0 0 0 93.44 19.977 A 108.883 108.883 0 0 0 75 29.25 Q 59.25 39.25 46.125 52.875 A 156.757 156.757 0 0 0 27.754 75.774 A 141.154 141.154 0 0 0 24.125 81.625 A 116.88 116.88 0 0 0 16.306 97.461 A 90.974 90.974 0 0 0 12 111.25 Q 11.25 114.5 11.25 117.75 A 23.57 23.57 0 0 0 12.922 126.787 Q 15.287 132.545 21 136.5 A 164.047 164.047 0 0 1 25.023 125.221 A 201.489 201.489 0 0 1 28 118.125 A 148.045 148.045 0 0 1 34.789 104.713 A 175.879 175.879 0 0 1 38.5 98.5 Q 46.5 85 55.5 73.25 A 252.387 252.387 0 0 1 64.375 62.281 A 186.763 186.763 0 0 1 73 52.875 Q 80.986 44.771 86.986 41.192 A 32.193 32.193 0 0 1 87.75 40.75 A 9.83 9.83 0 0 1 88.786 40.216 Q 89.345 39.965 90.015 39.731 A 22.924 22.924 0 0 1 91.125 39.375 A 16.947 16.947 0 0 1 92.913 38.948 Q 94.016 38.75 95 38.75 Q 99.25 38.75 97.25 42 A 6.811 6.811 0 0 1 96.534 43.192 Q 95.22 45.005 92.066 47.841 A 87.995 87.995 0 0 1 90.75 49 A 188.206 188.206 0 0 0 77.363 61.161 A 250.992 250.992 0 0 0 65.375 74 Q 52.5 88.75 42.375 105.375 A 140.08 140.08 0 0 0 32.335 125.073 A 115.535 115.535 0 0 0 27.75 138.5 L 31.5 139 A 29.782 29.782 0 0 0 35.076 138.764 Q 36.93 138.538 39.068 138.097 A 76.645 76.645 0 0 0 43.625 137 A 91.472 91.472 0 0 0 47.929 135.726 Q 52.311 134.303 55.227 132.762 A 27.32 27.32 0 0 0 55.25 132.75 Q 56.403 132.174 57.113 132.04 A 2.115 2.115 0 0 1 57.5 132 A 1.799 1.799 0 0 1 57.995 132.062 Q 58.549 132.221 58.697 132.787 A 1.842 1.842 0 0 1 58.75 133.25 Q 58.75 135.25 54.75 137.375 Q 50.75 139.5 45.25 141.25 A 101.298 101.298 0 0 1 39.969 142.781 A 74.602 74.602 0 0 1 35.125 143.875 Q 30.608 144.729 29.31 144.511 A 2.003 2.003 0 0 1 29.25 144.5 L 26.5 144 A 2.83 2.83 0 0 0 26.403 144.424 Q 26.25 145.352 26.25 147.5 A 29.105 29.105 0 0 0 27.133 154.832 A 22.64 22.64 0 0 0 30.625 162.375 Q 34.959 168.442 42.114 168.499 A 17.066 17.066 0 0 0 42.25 168.5 A 22.685 22.685 0 0 0 47.633 167.791 Q 52.74 166.539 59.091 163.074 A 80.604 80.604 0 0 0 60.125 162.5 A 116.193 116.193 0 0 0 73.357 153.73 A 143.127 143.127 0 0 0 81.25 147.25 Q 121 112.25 136.5 59.25 A 91.885 91.885 0 0 0 138.953 49.012 Q 140 43.082 140 37.75 Q 140 27.25 135.625 20.875 A 14.196 14.196 0 0 0 126.1 14.856 A 22.413 22.413 0 0 0 122 14.5 Z M 86.5 151.25 L 86.75 151.25 A 150.165 150.165 0 0 1 68.328 165.102 A 132.307 132.307 0 0 1 62 168.875 Q 49.885 175.645 41.382 175.982 A 22.249 22.249 0 0 1 40.5 176 A 21.203 21.203 0 0 1 24.806 169.468 A 26.149 26.149 0 0 1 24.125 168.75 Q 17.5 161.5 17.5 151.75 A 14.532 14.532 0 0 1 17.5 151.679 Q 17.515 148.697 18.75 144.25 A 35.302 35.302 0 0 1 9.27 138.783 Q 0.724 131.709 0.057 119.803 A 36.664 36.664 0 0 1 0 117.75 A 44.687 44.687 0 0 1 1.125 108.084 Q 2.57 101.563 5.875 94.25 A 113.127 113.127 0 0 1 13.948 79.546 A 146.409 146.409 0 0 1 22.25 68 Q 35.25 51.5 51.875 38.125 A 169.901 169.901 0 0 1 72.949 23.555 A 143.986 143.986 0 0 1 85.875 16.875 Q 102.601 9.294 117.358 9.011 A 59.535 59.535 0 0 1 118.5 9 Q 125.245 9 130.877 11.072 A 30.934 30.934 0 0 1 143 19.25 A 35.35 35.35 0 0 1 152.386 41.474 A 46.469 46.469 0 0 1 152.5 44.75 A 47.926 47.926 0 0 1 152.076 51.277 A 35.738 35.738 0 0 1 150.75 57.25 A 145.049 145.049 0 0 1 138.705 87.396 A 163.179 163.179 0 0 1 136.375 91.625 Q 126.75 108.5 113.875 123.5 Q 101 138.5 86.5 151.25 Z" id="0" vector-effect="non-scaling-stroke"/>
		<path d="M 140 152.75 L 157.75 114 A 424.344 424.344 0 0 1 158.844 111.695 Q 160.625 107.969 163.25 102.625 A 5060.254 5060.254 0 0 0 166.086 96.842 Q 167.355 94.249 168.771 91.351 A 10248.824 10248.824 0 0 0 171.75 85.25 L 172.875 83 Q 173.5 81.75 174.25 80.5 Q 175.75 77.75 177.25 74.5 L 180.25 68.25 Q 184.948 58.359 188.546 52.504 A 79.728 79.728 0 0 1 188.625 52.375 A 35.572 35.572 0 0 1 191.715 48.076 Q 193.635 45.805 195.759 44.204 A 20.91 20.91 0 0 1 196.75 43.5 Q 202.417 40.051 203.956 40.001 A 1.367 1.367 0 0 1 204 40 Q 205.75 40 207.75 43.5 Q 207.75 43.648 207.794 43.709 A 0.095 0.095 0 0 0 207.875 43.75 Q 208 43.75 208 44 Q 208 45.5 205.75 49 A 547.386 547.386 0 0 1 204.93 50.227 Q 204.011 51.596 202.794 53.398 A 1877.337 1877.337 0 0 1 201.625 55.125 Q 199.82 57.789 197.484 61.221 A 5454.53 5454.53 0 0 1 195.25 64.5 A 800.273 800.273 0 0 0 184.008 81.063 Q 178.969 88.703 174.664 95.676 A 462.12 462.12 0 0 0 171.875 100.25 A 226.625 226.625 0 0 0 157.424 128.441 A 206.678 206.678 0 0 0 155.75 132.5 A 261.972 261.972 0 0 1 165.617 124.25 A 294.409 294.409 0 0 1 169.125 121.5 Q 173.912 117.805 177.74 115.238 A 83.218 83.218 0 0 1 181.25 113 Q 188.25 109 193.5 109 Q 201.5 109 201.5 119.5 Q 201.5 131 194.75 140.375 A 53.054 53.054 0 0 1 184.62 150.872 A 69.835 69.835 0 0 1 176.125 156.625 A 109.675 109.675 0 0 1 159.193 164.518 A 133.622 133.622 0 0 1 149.25 167.75 Q 146 169 143.25 169 A 7.554 7.554 0 0 1 140.888 168.662 Q 138.453 167.861 137.768 165.157 A 9.834 9.834 0 0 1 137.5 162.75 A 20.398 20.398 0 0 1 138.291 157.248 A 28.04 28.04 0 0 1 140 152.75 Z M 149 159.75 L 152 160 A 29.571 29.571 0 0 0 163.707 157.497 A 40.849 40.849 0 0 0 170.5 153.75 A 53.157 53.157 0 0 0 184.494 140.719 A 50.891 50.891 0 0 0 185.625 139.125 Q 189.411 133.566 190.758 128.786 A 18.578 18.578 0 0 0 191.5 123.75 A 10.75 10.75 0 0 0 190.974 120.318 A 9.056 9.056 0 0 0 188.75 116.75 A 2.621 2.621 0 0 0 188.306 116.693 Q 186.085 116.587 180.846 119.411 A 66.873 66.873 0 0 0 180 119.875 Q 173.5 123.5 166.125 129.375 A 121.783 121.783 0 0 0 156.752 137.63 A 104.212 104.212 0 0 0 153 141.5 A 222.605 222.605 0 0 0 151.584 145.967 Q 148.495 156.107 148.875 159.165 A 3.054 3.054 0 0 0 149 159.75 Z" id="1" vector-effect="non-scaling-stroke"/>
		<path d="M 208.75 139.5 L 211.5 134 A 2.221 2.221 0 0 0 211.737 133.709 Q 212.191 133.063 212.875 131.5 A 42.946 42.946 0 0 1 213.507 130.128 Q 214.186 128.715 215.17 126.867 A 144.324 144.324 0 0 1 215.5 126.25 Q 216.908 123.434 217.831 121.103 A 41.977 41.977 0 0 0 218.25 120 A 39.235 39.235 0 0 0 219.283 116.741 A 31.901 31.901 0 0 0 219.75 114.75 A 0.269 0.269 0 0 1 219.797 114.618 Q 219.954 114.358 220.639 113.834 A 14.479 14.479 0 0 1 220.75 113.75 A 13.882 13.882 0 0 1 222.094 112.855 A 11.76 11.76 0 0 1 222.75 112.5 L 224.25 112.25 A 8.857 8.857 0 0 1 225.772 112.374 Q 226.639 112.525 227.351 112.861 A 5.222 5.222 0 0 1 227.625 113 A 2.836 2.836 0 0 1 228.084 113.306 Q 228.79 113.895 228.589 114.725 A 2.024 2.024 0 0 1 228.5 115 A 969.549 969.549 0 0 0 227.258 117.672 Q 226.281 119.781 225.5 121.5 A 106.192 106.192 0 0 0 224.633 123.457 Q 224.218 124.421 223.879 125.271 A 51.287 51.287 0 0 0 223.5 126.25 L 223.25 126.25 A 149.744 149.744 0 0 0 220.223 133.635 A 121.066 121.066 0 0 0 218.625 138.125 A 33.473 33.473 0 0 0 217.334 143.261 Q 216.971 145.466 216.971 147.565 A 23.729 23.729 0 0 0 217 148.75 L 217.25 155.5 A 8.085 8.085 0 0 1 216.603 158.01 A 7.128 7.128 0 0 1 215.5 159.75 A 27.919 27.919 0 0 1 214.802 160.255 Q 214.009 160.812 212.908 161.523 A 93.435 93.435 0 0 1 212.75 161.625 Q 211.444 162.464 209.582 163.373 A 53.74 53.74 0 0 1 208.25 164 Q 208.018 164.232 207.139 164.249 A 7.373 7.373 0 0 1 207 164.25 A 5.346 5.346 0 0 1 204.112 163.389 A 7.255 7.255 0 0 1 203.25 162.75 A 4.916 4.916 0 0 1 201.513 159.172 A 6.791 6.791 0 0 1 201.5 158.75 Q 201.5 154.162 207.036 142.893 A 179.603 179.603 0 0 1 208.75 139.5 Z M 226 101.5 A 1.13 1.13 0 0 0 226.585 102.503 Q 227.378 103 229.25 103 A 23.445 23.445 0 0 0 229.622 102.997 Q 232.391 102.953 234.5 102.25 Q 236.297 101.531 238.481 99.392 A 31.839 31.839 0 0 0 240.25 97.5 A 47.697 47.697 0 0 0 241.25 96.307 A 52.543 52.543 0 0 0 246.125 89.125 A 34.771 34.771 0 0 0 246.229 88.94 Q 247.826 86.087 248.411 83.764 A 10.32 10.32 0 0 0 248.75 81.25 Q 248.75 79.75 248.5 79.25 A 102.178 102.178 0 0 1 247.349 80.756 Q 244.875 83.93 242.852 85.957 A 24.154 24.154 0 0 1 240.875 87.75 Q 238.727 89.469 235.456 91.66 A 163.045 163.045 0 0 1 232.25 93.75 Q 229.75 95.5 227.875 97.875 A 23.468 23.468 0 0 0 227.847 97.91 Q 226.509 99.612 226.14 100.732 A 2.483 2.483 0 0 0 226 101.5 Z" id="2" vector-effect="non-scaling-stroke"/>
		<path d="M 302 142.75 L 307.5 139 L 313 135.5 A 1.675 1.675 0 0 1 313.33 135.382 Q 313.678 135.292 314.209 135.264 A 10.058 10.058 0 0 1 314.75 135.25 Q 316.154 135.25 314.929 137.222 A 10.311 10.311 0 0 1 314.75 137.5 A 122.291 122.291 0 0 1 308.123 145.098 Q 297.385 156.343 289.644 156.964 A 11.186 11.186 0 0 1 288.75 157 A 11.224 11.224 0 0 1 285.063 156.363 A 12.811 12.811 0 0 1 284.75 156.25 A 2.895 2.895 0 0 1 283.605 155.319 Q 282.726 154.176 282.25 151.875 Q 281.5 148.25 281.375 144 A 455.186 455.186 0 0 1 281.32 142 Q 281.272 140.066 281.257 138.665 A 108.805 108.805 0 0 1 281.25 137.5 L 281.5 129.25 A 15.009 15.009 0 0 0 281.405 127.483 Q 281.194 125.708 280.508 124.838 A 2.125 2.125 0 0 0 278.75 124 A 7.915 7.915 0 0 0 275.325 125.104 Q 267.685 129.111 249.708 147.671 A 536.304 536.304 0 0 0 246.75 150.75 Q 244.75 153.25 240.5 157.5 A 19.16 19.16 0 0 1 237.91 159.695 Q 234.955 161.75 232 161.75 A 8.486 8.486 0 0 1 230.358 161.606 Q 227.758 161.09 227.523 158.735 A 4.897 4.897 0 0 1 227.5 158.25 Q 227.5 156 229.125 152.5 Q 230.75 149 232.5 145.75 A 420.214 420.214 0 0 0 239.203 133.281 A 369.656 369.656 0 0 0 241.25 129.25 Q 245.25 121.25 249 112.25 Q 250.75 108.25 254.25 108.25 A 4.464 4.464 0 0 1 255.31 108.364 Q 257.761 108.966 256.5 112.75 Q 255 116.5 253.5 119.5 A 178.73 178.73 0 0 0 250.772 125.292 Q 247.175 133.335 246.607 137.375 A 9.95 9.95 0 0 0 246.5 138.75 A 5.124 5.124 0 0 0 246.582 139.709 Q 246.679 140.215 246.889 140.589 A 1.931 1.931 0 0 0 248 141.5 L 253.25 137.375 Q 254.809 136.15 255.177 135.818 A 1.988 1.988 0 0 0 255.25 135.75 A 324.102 324.102 0 0 0 258.724 132.98 Q 260.801 131.301 263.125 129.375 A 249.71 249.71 0 0 0 267.644 125.534 Q 270.008 123.478 272.584 121.15 A 404.4 404.4 0 0 0 272.75 121 Q 279.218 115.12 283.996 113.85 A 9.752 9.752 0 0 1 286.5 113.5 Q 293.25 113.5 292.25 125.75 Q 292 130.5 292.25 135 A 6.525 6.525 0 0 1 292.379 135.691 Q 292.476 136.399 292.495 137.382 A 25.531 25.531 0 0 1 292.5 137.875 L 292.5 142.25 Q 292.5 144.57 295.083 144.737 A 6.458 6.458 0 0 0 295.5 144.75 Q 299 144.75 302 142.75 Z" id="3" vector-effect="non-scaling-stroke"/>
		<path d="M 386.5 142.75 L 392 139 L 397.5 135.5 A 1.675 1.675 0 0 1 397.83 135.382 Q 398.178 135.292 398.709 135.264 A 10.058 10.058 0 0 1 399.25 135.25 Q 400.654 135.25 399.429 137.222 A 10.311 10.311 0 0 1 399.25 137.5 A 122.291 122.291 0 0 1 392.623 145.098 Q 381.885 156.343 374.144 156.964 A 11.186 11.186 0 0 1 373.25 157 A 11.224 11.224 0 0 1 369.563 156.363 A 12.811 12.811 0 0 1 369.25 156.25 A 2.895 2.895 0 0 1 368.105 155.319 Q 367.226 154.176 366.75 151.875 Q 366 148.25 365.875 144 A 455.186 455.186 0 0 1 365.82 142 Q 365.772 140.066 365.757 138.665 A 108.805 108.805 0 0 1 365.75 137.5 L 366 129.25 A 15.009 15.009 0 0 0 365.905 127.483 Q 365.694 125.708 365.008 124.838 A 2.125 2.125 0 0 0 363.25 124 A 7.915 7.915 0 0 0 359.825 125.104 Q 352.185 129.111 334.208 147.671 A 536.304 536.304 0 0 0 331.25 150.75 Q 329.25 153.25 325 157.5 A 19.16 19.16 0 0 1 322.41 159.695 Q 319.455 161.75 316.5 161.75 A 8.486 8.486 0 0 1 314.858 161.606 Q 312.258 161.09 312.023 158.735 A 4.897 4.897 0 0 1 312 158.25 Q 312 156 313.625 152.5 Q 315.25 149 317 145.75 A 420.214 420.214 0 0 0 323.703 133.281 A 369.656 369.656 0 0 0 325.75 129.25 Q 329.75 121.25 333.5 112.25 Q 335.25 108.25 338.75 108.25 A 4.464 4.464 0 0 1 339.81 108.364 Q 342.261 108.966 341 112.75 Q 339.5 116.5 338 119.5 A 178.73 178.73 0 0 0 335.272 125.292 Q 331.675 133.335 331.107 137.375 A 9.95 9.95 0 0 0 331 138.75 A 5.124 5.124 0 0 0 331.082 139.709 Q 331.179 140.215 331.389 140.589 A 1.931 1.931 0 0 0 332.5 141.5 L 337.75 137.375 Q 339.309 136.15 339.677 135.818 A 1.988 1.988 0 0 0 339.75 135.75 A 324.102 324.102 0 0 0 343.224 132.98 Q 345.301 131.301 347.625 129.375 A 249.71 249.71 0 0 0 352.144 125.534 Q 354.508 123.478 357.084 121.15 A 404.4 404.4 0 0 0 357.25 121 Q 363.718 115.12 368.496 113.85 A 9.752 9.752 0 0 1 371 113.5 Q 377.75 113.5 376.75 125.75 Q 376.5 130.5 376.75 135 A 6.525 6.525 0 0 1 376.879 135.691 Q 376.976 136.399 376.995 137.382 A 25.531 25.531 0 0 1 377 137.875 L 377 142.25 Q 377 144.57 379.583 144.737 A 6.458 6.458 0 0 0 380 144.75 Q 383.5 144.75 386.5 142.75 Z" id="4" vector-effect="non-scaling-stroke"/>
		<path d="M 435 135.75 L 422.25 148 L 415.25 154.75 Q 409.908 160.092 405.923 161.498 A 8.055 8.055 0 0 1 403.25 162 A 4.321 4.321 0 0 1 401.553 161.676 A 4.074 4.074 0 0 1 400 160.5 A 9.896 9.896 0 0 1 397.836 155.265 A 13.03 13.03 0 0 1 397.75 153.75 A 23.084 23.084 0 0 1 398.52 147.982 Q 399.157 145.511 400.321 142.896 A 39.282 39.282 0 0 1 400.5 142.5 Q 403.25 136.5 407 130.875 Q 410.75 125.25 413.75 121.5 Q 419.998 113.795 425.985 108.865 A 56.38 56.38 0 0 1 428.375 107 A 28.381 28.381 0 0 1 435.076 103.276 A 22.741 22.741 0 0 1 443.25 101.75 Q 447.5 101.75 451.625 103.25 A 19.847 19.847 0 0 1 457.347 106.532 A 24.495 24.495 0 0 1 459.25 108.25 L 459.5 108.5 Q 459.5 109.146 458.572 109.793 A 5.657 5.657 0 0 1 458.25 110 A 9.437 9.437 0 0 1 457.95 110.288 Q 457.633 110.578 457.375 110.75 Q 457 111 456.75 111.25 Q 454.141 113.859 450.966 119.492 A 93.207 93.207 0 0 0 450 121.25 Q 446.25 128.25 443.5 135.875 A 58.212 58.212 0 0 0 441.934 140.866 Q 440.75 145.391 440.75 149 A 15.612 15.612 0 0 0 440.906 151.297 Q 441.375 154.438 443.25 155.75 Q 444.5 156.5 446 156.5 A 7.535 7.535 0 0 0 448.088 156.166 Q 450.135 155.57 452.846 153.912 A 43.851 43.851 0 0 0 455 152.5 A 2.548 2.548 0 0 1 455.139 152.373 Q 455.441 152.113 456.125 151.625 L 458.75 149.75 A 13.209 13.209 0 0 1 459.703 149.094 Q 461.063 148.25 462 148.25 Q 463.137 148.25 463.24 149.077 A 1.401 1.401 0 0 1 463.25 149.25 A 2.87 2.87 0 0 1 463.014 150.34 Q 462.646 151.234 461.707 152.271 A 13.439 13.439 0 0 1 461.25 152.75 A 187.615 187.615 0 0 1 459.656 154.062 A 255.685 255.685 0 0 1 457.875 155.5 A 34.337 34.337 0 0 1 455.844 157 A 45.951 45.951 0 0 1 453.5 158.5 A 36.796 36.796 0 0 1 447.245 162.224 A 33.255 33.255 0 0 1 445.75 162.875 A 32.019 32.019 0 0 1 443.507 163.697 Q 441.271 164.415 439.629 164.491 A 8.224 8.224 0 0 1 439.25 164.5 Q 438.75 164.5 438.25 164.375 A 4.773 4.773 0 0 1 437.438 164.089 A 5.438 5.438 0 0 1 437.25 164 A 10.074 10.074 0 0 1 434.917 162.422 A 7.62 7.62 0 0 1 432.75 159 Q 431.75 155.75 432.25 150.75 A 22.839 22.839 0 0 0 432.508 149.563 Q 432.897 147.546 433.354 143.915 A 201.342 201.342 0 0 0 433.375 143.75 A 67.971 67.971 0 0 1 433.802 140.82 Q 434.313 137.813 435 135.75 Z M 425.501 138.239 A 179.915 179.915 0 0 0 430.5 133 A 184.133 184.133 0 0 0 434.063 128.844 A 148.052 148.052 0 0 0 437.25 124.875 A 137.189 137.189 0 0 0 441.469 119.133 A 120.954 120.954 0 0 0 442.75 117.25 A 42.724 42.724 0 0 0 444.147 114.84 Q 446.596 110.248 446.013 107.931 A 2.885 2.885 0 0 0 445.75 107.25 A 2.538 2.538 0 0 0 444.12 105.927 Q 443.524 105.75 442.75 105.75 Q 440.451 105.75 436.754 107.759 A 37.455 37.455 0 0 0 435.25 108.625 A 53.839 53.839 0 0 0 429.904 112.344 A 70.429 70.429 0 0 0 425.625 116 A 133.28 133.28 0 0 0 418.937 122.609 A 115.215 115.215 0 0 0 416.75 125 A 30.13 30.13 0 0 0 414.773 127.871 Q 413.893 129.308 413.012 131.028 A 70.175 70.175 0 0 0 411.25 134.75 A 46.79 46.79 0 0 0 409.86 138.263 Q 408.5 142.188 408.5 145 Q 408.5 148.429 410.899 148.499 A 3.465 3.465 0 0 0 411 148.5 Q 415.272 148.5 425.501 138.239 Z" id="5" vector-effect="non-scaling-stroke"/>
		<path d="M 527.125 166.75 A 26.823 26.823 0 0 0 533.434 170.873 Q 542.212 175.034 555.75 174.5 Q 561.844 174.188 568.914 171.971 A 86.379 86.379 0 0 0 577.75 168.625 Q 590 163.25 603.25 154.125 Q 616.5 145 629 133.75 A 311.103 311.103 0 0 0 635.861 127.428 A 254.436 254.436 0 0 0 646.125 117.125 A 214.702 214.702 0 0 0 650.732 112.059 A 182.499 182.499 0 0 0 659.75 101 A 14.423 14.423 0 0 0 660.28 100.22 Q 660.906 99.229 661.266 98.271 A 7.151 7.151 0 0 0 661.75 95.75 A 2.187 2.187 0 0 0 661.737 95.507 Q 661.652 94.75 661 94.75 Q 660.023 94.75 658.589 95.971 A 14.33 14.33 0 0 0 657.75 96.75 A 162.335 162.335 0 0 1 649.406 106.938 A 219.73 219.73 0 0 1 639.375 117.5 Q 628.5 128.25 616 138 A 257.096 257.096 0 0 1 612.871 140.402 A 231.042 231.042 0 0 1 590.75 155.25 A 149.582 149.582 0 0 1 590.35 155.481 Q 577.771 162.728 567.424 165.416 A 45.568 45.568 0 0 1 556 167 A 46.491 46.491 0 0 1 555.057 166.991 Q 542.485 166.735 535.375 159.625 A 22.549 22.549 0 0 1 532.723 156.435 Q 529.983 152.442 528.832 147.129 A 39.603 39.603 0 0 1 528 138.75 A 58.936 58.936 0 0 1 528.931 128.554 A 79.28 79.28 0 0 1 531.5 118.25 A 126.243 126.243 0 0 1 536.674 104.803 A 150.089 150.089 0 0 1 549.125 82.625 Q 561 65 576.5 49.75 A 232.055 232.055 0 0 1 584.313 42.406 A 198.941 198.941 0 0 1 608.5 23.75 Q 632.75 7.75 648.25 7.75 A 20.183 20.183 0 0 1 651.62 8.021 A 14.726 14.726 0 0 1 658.625 11.125 A 10.74 10.74 0 0 1 662.24 16.711 A 15.109 15.109 0 0 1 662.75 20.75 Q 662.75 23.273 662.045 26.149 A 34.884 34.884 0 0 1 660.75 30.25 A 79.528 79.528 0 0 1 658.762 34.977 A 87.35 87.35 0 0 1 647.875 52.625 Q 639.5 63.25 628 70.75 A 70.122 70.122 0 0 1 621.967 74.268 A 77.064 77.064 0 0 1 602 81.25 A 6.854 6.854 0 0 1 601.605 81.317 Q 599.37 81.63 597.875 80.25 Q 596.25 78.75 596.25 75.75 A 15.825 15.825 0 0 1 596.649 72.338 Q 598.171 65.456 605.5 55.75 A 43.583 43.583 0 0 0 605.851 55.288 Q 608.018 52.391 608.25 51 A 4.792 4.792 0 0 0 608.24 50.687 Q 608.171 49.629 607.615 49.139 A 1.696 1.696 0 0 0 606.75 48.75 A 3.939 3.939 0 0 0 605.081 49.155 Q 603.628 49.833 601.995 51.649 A 24.603 24.603 0 0 0 600.5 53.5 Q 587.5 69.5 587.5 79.25 Q 587.5 85.531 592.894 86.881 A 13.871 13.871 0 0 0 596.25 87.25 A 12.35 12.35 0 0 0 597.524 87.174 Q 599.73 86.942 603.5 86 A 99.799 99.799 0 0 0 606.984 84.951 A 106.631 106.631 0 0 0 634.125 71.625 A 149.83 149.83 0 0 0 646.086 62.688 A 113.531 113.531 0 0 0 658.5 50.75 Q 665.688 42.844 669 37.004 A 27.419 27.419 0 0 0 671 32.75 A 32.98 32.98 0 0 0 672.295 28.567 A 25.364 25.364 0 0 0 673 22.75 A 24.927 24.927 0 0 0 672.99 22.051 A 19.65 19.65 0 0 0 666.625 7.75 Q 660.25 1.75 652 0.5 Q 649.768 0.252 648.027 0.127 A 69.627 69.627 0 0 0 648 0.125 A 62.316 62.316 0 0 0 647.207 0.073 Q 645.957 0 645 0 A 57.632 57.632 0 0 0 644.048 0.008 Q 636.892 0.126 629.18 2.017 A 92.853 92.853 0 0 0 616 6.375 A 118.431 118.431 0 0 0 600.438 14.219 A 154.241 154.241 0 0 0 584.75 25 A 158.287 158.287 0 0 0 571.256 36.819 A 195.393 195.393 0 0 0 554.75 55.25 Q 533.5 82.25 521.75 118.25 A 135.336 135.336 0 0 0 519.707 125.86 Q 517.5 135.223 517.5 142.25 Q 517.5 158.25 527.125 166.75 Z" id="7" vector-effect="non-scaling-stroke"/>
		<path d="M 649.25 172.5 L 648.5 172.5 A 7.595 7.595 0 0 1 646.738 172.314 Q 643.616 171.567 643.936 167.809 A 9.853 9.853 0 0 1 644 167.25 A 89.301 89.301 0 0 1 648.79 149.437 A 98.936 98.936 0 0 1 649.25 148.25 Q 650.781 144.422 652.972 139.714 A 260.914 260.914 0 0 1 654.375 136.75 A 341.915 341.915 0 0 1 657.666 130.101 Q 659.559 126.375 661.75 122.25 A 463.852 463.852 0 0 0 663.599 118.723 Q 664.433 117.114 665.156 115.684 A 252.633 252.633 0 0 0 665.625 114.75 L 668.25 109.5 A 301.142 301.142 0 0 0 670.031 105.875 A 361.177 361.177 0 0 0 671.875 102 A 214.867 214.867 0 0 0 673.781 97.813 A 270.7 270.7 0 0 0 675.75 93.25 A 655.205 655.205 0 0 1 681.431 81.148 Q 687.002 69.61 691.492 61.728 A 181.022 181.022 0 0 1 692.125 60.625 A 69.47 69.47 0 0 1 696.985 53.273 Q 701.75 47.031 707 43.75 A 0.761 0.761 0 0 1 707.272 43.584 Q 707.952 43.325 709.75 43.625 Q 712 44 714.125 44.75 Q 715.787 45.337 716.455 46.076 A 1.909 1.909 0 0 1 716.75 46.5 Q 717.5 48.25 717.5 51.5 A 27.677 27.677 0 0 1 716.305 59.204 Q 714.176 66.531 708.25 75.5 Q 703.25 83 695.625 91.875 A 296.851 296.851 0 0 1 687.344 101.094 Q 682.875 105.875 677.75 111 L 673.25 118.25 Q 667.852 126.887 664.202 133.71 A 144.382 144.382 0 0 0 661.625 138.75 A 39.512 39.512 0 0 0 659.634 143.6 Q 658.305 147.628 658.305 151.137 A 17.162 17.162 0 0 0 658.5 153.75 A 5.373 5.373 0 0 0 658.713 154.297 Q 659.152 155.25 659.75 155.25 Q 660.445 155.25 661.998 154.177 A 19.589 19.589 0 0 0 662.25 154 A 31.699 31.699 0 0 0 664.031 152.625 A 41.296 41.296 0 0 0 665.875 151 A 23.938 23.938 0 0 0 667.945 148.794 A 31.126 31.126 0 0 0 669.5 146.75 Q 670.75 145.5 671.625 144 A 23.281 23.281 0 0 1 673.099 141.768 A 20.657 20.657 0 0 1 673.5 141.25 Q 674.722 139.01 675.943 137.434 A 17.885 17.885 0 0 1 676.5 136.75 A 124.494 124.494 0 0 1 678.781 133.047 Q 682.063 127.938 684.5 125.5 A 31.795 31.795 0 0 1 687.172 123.094 Q 691.063 120 694.25 120 Q 699.25 120 703.125 125.375 A 52.853 52.853 0 0 1 705.608 129.186 Q 708.406 133.875 711.5 140.75 A 116.952 116.952 0 0 0 713.482 145.096 Q 715.385 149.035 717.099 151.652 A 32.183 32.183 0 0 0 717.5 152.25 Q 719.682 155.225 721.707 155.84 A 3.578 3.578 0 0 0 722.75 156 Q 725.031 156 727.936 153.502 A 21.354 21.354 0 0 0 728.5 153 A 19.654 19.654 0 0 1 730.085 151.683 Q 732.115 150.182 733.75 150 A 2.878 2.878 0 0 1 734.309 150.964 Q 734.705 152.153 733.926 153.658 A 7.575 7.575 0 0 1 733.5 154.375 Q 731.939 156.717 729.084 158.86 A 28.531 28.531 0 0 1 728.375 159.375 A 46.471 46.471 0 0 1 724.411 161.887 A 37.533 37.533 0 0 1 721.75 163.25 A 17.675 17.675 0 0 1 720.446 163.794 Q 718.131 164.645 716.75 164.25 A 22.84 22.84 0 0 1 710.896 161.702 A 18.544 18.544 0 0 1 705.875 157.125 Q 702.908 153.201 700.015 147.446 A 104.575 104.575 0 0 1 698.25 143.75 A 505.933 505.933 0 0 0 697.204 141.463 Q 696.563 140.07 696 138.875 A 24.563 24.563 0 0 0 695.281 137.461 Q 694.921 136.808 694.561 136.269 A 11.191 11.191 0 0 0 694 135.5 A 6.046 6.046 0 0 0 692.336 133.858 Q 691.091 133.054 689.468 133.003 A 7.039 7.039 0 0 0 689.25 133 Q 687 133 684 135.25 A 51.787 51.787 0 0 0 680.344 138.622 A 64.43 64.43 0 0 0 678 141.125 A 43.24 43.24 0 0 0 674.883 145.099 A 58.021 58.021 0 0 0 672.25 149.25 A 216.766 216.766 0 0 0 671.43 150.43 Q 670.64 151.574 670.083 152.419 A 52.866 52.866 0 0 0 669.625 153.125 A 27.639 27.639 0 0 1 669.211 153.758 Q 668.625 154.625 668.25 155 A 74.974 74.974 0 0 1 667.539 155.977 Q 666.717 157.088 665.53 158.632 A 347.826 347.826 0 0 1 664.375 160.125 Q 662.57 162.445 660.352 165.534 A 299.749 299.749 0 0 0 658.25 168.5 A 7.814 7.814 0 0 1 657.064 169.634 Q 655.975 170.488 654.375 171.25 Q 651.75 172.5 649.25 172.5 Z M 682.614 98.504 A 37.989 37.989 0 0 0 682.75 98.375 A 66.667 66.667 0 0 0 685.123 95.973 Q 686.163 94.869 687.289 93.595 A 138.009 138.009 0 0 0 689.625 90.875 A 246.36 246.36 0 0 0 696.406 82.398 A 270.622 270.622 0 0 0 697.375 81.125 A 112.853 112.853 0 0 0 700.053 77.439 Q 701.328 75.602 702.356 73.937 A 55.666 55.666 0 0 0 703.5 72 A 175.691 175.691 0 0 0 706.134 67.348 Q 710.07 60.121 710.978 56.41 A 8.23 8.23 0 0 0 711.25 54.5 A 3.841 3.841 0 0 0 711.14 53.549 A 2.437 2.437 0 0 0 710 52 A 2.841 2.841 0 0 0 708.181 51.347 Q 706.497 51.347 704.286 53.188 A 18.467 18.467 0 0 0 703.25 54.125 Q 699.598 57.67 695.945 63.061 A 86.726 86.726 0 0 0 694.75 64.875 Q 690.5 71.5 687.5 78 A 156.47 156.47 0 0 0 685.719 82.25 A 211.539 211.539 0 0 0 683.875 87 A 255.199 255.199 0 0 0 682.354 91.16 Q 681.678 93.061 681.114 94.763 A 141.796 141.796 0 0 0 680.75 95.875 A 189.519 189.519 0 0 1 680.735 95.92 Q 679.497 99.756 679 100.75 Q 679.733 101.239 682.614 98.504 Z" id="8" vector-effect="non-scaling-stroke"/>
		<path d="M 735.75 139.5 L 738.5 134 A 2.221 2.221 0 0 0 738.737 133.709 Q 739.191 133.063 739.875 131.5 A 42.946 42.946 0 0 1 740.507 130.128 Q 741.186 128.715 742.17 126.867 A 144.324 144.324 0 0 1 742.5 126.25 Q 743.908 123.434 744.831 121.103 A 41.977 41.977 0 0 0 745.25 120 A 39.235 39.235 0 0 0 746.283 116.741 A 31.901 31.901 0 0 0 746.75 114.75 A 0.269 0.269 0 0 1 746.797 114.618 Q 746.954 114.358 747.639 113.834 A 14.479 14.479 0 0 1 747.75 113.75 A 13.882 13.882 0 0 1 749.094 112.855 A 11.76 11.76 0 0 1 749.75 112.5 L 751.25 112.25 A 8.857 8.857 0 0 1 752.772 112.374 Q 753.639 112.525 754.351 112.861 A 5.222 5.222 0 0 1 754.625 113 A 2.836 2.836 0 0 1 755.084 113.306 Q 755.79 113.895 755.589 114.725 A 2.024 2.024 0 0 1 755.5 115 A 969.549 969.549 0 0 0 754.258 117.672 Q 753.281 119.781 752.5 121.5 A 106.192 106.192 0 0 0 751.633 123.457 Q 751.218 124.421 750.879 125.271 A 51.287 51.287 0 0 0 750.5 126.25 L 750.25 126.25 A 149.744 149.744 0 0 0 747.223 133.635 A 121.066 121.066 0 0 0 745.625 138.125 A 33.473 33.473 0 0 0 744.334 143.261 Q 743.971 145.466 743.971 147.565 A 23.729 23.729 0 0 0 744 148.75 L 744.25 155.5 A 8.085 8.085 0 0 1 743.603 158.01 A 7.128 7.128 0 0 1 742.5 159.75 A 27.919 27.919 0 0 1 741.802 160.255 Q 741.009 160.812 739.908 161.523 A 93.435 93.435 0 0 1 739.75 161.625 Q 738.444 162.464 736.582 163.373 A 53.74 53.74 0 0 1 735.25 164 Q 735.018 164.232 734.139 164.249 A 7.373 7.373 0 0 1 734 164.25 A 5.346 5.346 0 0 1 731.112 163.389 A 7.255 7.255 0 0 1 730.25 162.75 A 4.916 4.916 0 0 1 728.513 159.172 A 6.791 6.791 0 0 1 728.5 158.75 Q 728.5 154.162 734.036 142.893 A 179.603 179.603 0 0 1 735.75 139.5 Z M 753 101.5 A 1.13 1.13 0 0 0 753.585 102.503 Q 754.378 103 756.25 103 A 23.445 23.445 0 0 0 756.622 102.997 Q 759.391 102.953 761.5 102.25 Q 763.297 101.531 765.481 99.392 A 31.839 31.839 0 0 0 767.25 97.5 A 47.697 47.697 0 0 0 768.25 96.307 A 52.543 52.543 0 0 0 773.125 89.125 A 34.771 34.771 0 0 0 773.229 88.94 Q 774.826 86.087 775.411 83.764 A 10.32 10.32 0 0 0 775.75 81.25 Q 775.75 79.75 775.5 79.25 A 102.178 102.178 0 0 1 774.349 80.756 Q 771.875 83.93 769.852 85.957 A 24.154 24.154 0 0 1 767.875 87.75 Q 765.727 89.469 762.456 91.66 A 163.045 163.045 0 0 1 759.25 93.75 Q 756.75 95.5 754.875 97.875 A 23.468 23.468 0 0 0 754.847 97.91 Q 753.509 99.612 753.14 100.732 A 2.483 2.483 0 0 0 753 101.5 Z" id="9" vector-effect="non-scaling-stroke"/>
		<path d="M 780.5 154.75 L 772.5 159 L 767.25 162 A 2.768 2.768 0 0 0 766.863 162.174 Q 766.168 162.538 764.752 163.533 A 76.146 76.146 0 0 0 763.75 164.25 A 10.323 10.323 0 0 1 760.069 165.625 A 9.8 9.8 0 0 1 758.5 165.75 Q 755.374 165.75 751.554 162.512 A 25.597 25.597 0 0 1 751.25 162.25 A 12.58 12.58 0 0 1 749.604 160.254 Q 748.705 158.879 748.403 157.454 A 6.993 6.993 0 0 1 748.25 156 A 7.882 7.882 0 0 1 748.48 154.222 Q 749.045 151.805 751 148.25 Q 752.807 145.314 756.857 141.154 A 95.62 95.62 0 0 1 757.75 140.25 Q 759.75 138.25 761.125 136.625 A 67.768 67.768 0 0 1 761.789 135.852 Q 762.75 134.75 763.5 134 A 66.146 66.146 0 0 1 774.889 122.372 Q 780.622 117.729 787.922 113.529 A 135.367 135.367 0 0 1 796 109.25 A 35.514 35.514 0 0 1 800.149 107.4 Q 802.417 106.569 804.495 106.231 A 17.175 17.175 0 0 1 807.25 106 A 10.766 10.766 0 0 1 811.842 106.956 Q 814.06 107.987 815.722 110.129 A 13.464 13.464 0 0 1 816 110.5 A 62.472 62.472 0 0 1 816.867 108.836 Q 817.882 106.951 819.396 104.368 A 279.894 279.894 0 0 1 820.875 101.875 A 1554.739 1554.739 0 0 1 824.438 95.969 A 2057.872 2057.872 0 0 1 828.375 89.5 Q 832.5 82.75 836.375 76.75 A 676.199 676.199 0 0 1 838.211 73.922 Q 840.813 69.938 842.5 67.5 A 348.434 348.434 0 0 1 845.719 63.156 Q 850.313 57.063 853.5 53.5 A 23.637 23.637 0 0 1 855.642 51.479 Q 858.652 49 861.25 49 Q 862.5 49 864.5 50.25 A 4.916 4.916 0 0 1 866.237 53.828 A 6.791 6.791 0 0 1 866.25 54.25 A 10.782 10.782 0 0 1 865.793 57.238 Q 865.031 59.875 863 63 A 106.848 106.848 0 0 1 860.47 66.703 Q 859.122 68.598 857.504 70.734 A 254.499 254.499 0 0 1 854 75.25 A 10.456 10.456 0 0 1 853.639 75.755 Q 853.217 76.312 852.59 77.023 A 35.345 35.345 0 0 1 852.5 77.125 Q 851.813 77.898 851.007 78.967 A 49.99 49.99 0 0 0 850.25 80 A 8109.429 8109.429 0 0 0 845.984 86.211 A 9255.17 9255.17 0 0 0 844.5 88.375 Q 841.5 92.75 838 97 A 517.018 517.018 0 0 0 832.875 103.781 A 634.551 634.551 0 0 0 827.5 111.125 Q 822 118.75 817.25 127 Q 813 134.5 810 142.375 Q 807 150.25 805 158.25 A 153.891 153.891 0 0 0 804.883 159.086 Q 804.719 160.281 804.625 161.125 A 37.265 37.265 0 0 0 804.57 161.648 Q 804.5 162.375 804.5 162.75 L 804.75 166.5 A 2.83 2.83 0 0 1 804.847 166.924 Q 805 167.852 805 170 Q 805 176.5 799.75 176.5 A 5.796 5.796 0 0 1 796.987 175.857 Q 795.784 175.217 794.919 173.941 A 8.623 8.623 0 0 1 794.25 172.75 A 0.503 0.503 0 0 1 794.147 172.578 Q 794.029 172.28 794.006 171.604 A 10.365 10.365 0 0 1 794 171.25 A 5.26 5.26 0 0 1 794.059 170.555 Q 794.22 169.392 794.824 167.078 A 104.81 104.81 0 0 1 795.25 165.5 A 29.745 29.745 0 0 0 796.125 163 Q 796.5 161.75 797 160.5 Q 797.467 159.333 797.934 157.839 A 51.331 51.331 0 0 0 798 157.625 A 172.209 172.209 0 0 0 798.875 154.686 A 190.536 190.536 0 0 0 799 154.25 A 38.983 38.983 0 0 0 799.527 152.028 Q 799.764 150.874 799.882 149.866 A 16.09 16.09 0 0 0 800 148 A 8.149 8.149 0 0 0 799.921 146.811 Q 799.705 145.357 798.902 144.818 A 2.019 2.019 0 0 0 797.75 144.5 Q 797 144.5 795 145.75 Q 791.75 148.25 788.125 150.5 Q 784.5 152.75 780.5 154.75 Z M 765.5 155 A 13.097 13.097 0 0 0 768.589 154.647 A 11.155 11.155 0 0 0 770.5 154 Q 780 150.75 788.5 145.75 Q 795.805 141.453 803.848 134.571 A 159.028 159.028 0 0 0 806.5 132.25 Q 807.75 128.75 809.5 124.75 A 607.729 607.729 0 0 0 811.313 120.562 A 779.158 779.158 0 0 0 813.25 116 Q 810.25 109.75 804.5 109.75 Q 801.16 109.75 797.424 111.733 A 24.174 24.174 0 0 0 796.5 112.25 A 59.912 59.912 0 0 0 792.882 114.57 Q 790.117 116.477 787 119 A 131.036 131.036 0 0 0 780.066 124.973 A 154.91 154.91 0 0 0 776.875 128 A 129.78 129.78 0 0 0 772.094 132.906 A 98.41 98.41 0 0 0 768 137.625 A 79.516 79.516 0 0 0 765.972 140.228 Q 764.11 142.73 763.069 144.64 A 19.482 19.482 0 0 0 762.75 145.25 A 10.536 10.536 0 0 0 761.322 149.614 A 13.104 13.104 0 0 0 761.25 151 A 5.41 5.41 0 0 0 761.468 152.607 Q 762.018 154.374 763.954 154.836 A 6.674 6.674 0 0 0 765.5 155 Z" id="10" vector-effect="non-scaling-stroke"/>
		<path d="M 833.25 139.5 L 836 134 A 2.221 2.221 0 0 0 836.237 133.709 Q 836.691 133.063 837.375 131.5 A 42.946 42.946 0 0 1 838.007 130.128 Q 838.686 128.715 839.67 126.867 A 144.324 144.324 0 0 1 840 126.25 Q 841.408 123.434 842.331 121.103 A 41.977 41.977 0 0 0 842.75 120 A 39.235 39.235 0 0 0 843.783 116.741 A 31.901 31.901 0 0 0 844.25 114.75 A 0.269 0.269 0 0 1 844.297 114.618 Q 844.454 114.358 845.139 113.834 A 14.479 14.479 0 0 1 845.25 113.75 A 13.882 13.882 0 0 1 846.594 112.855 A 11.76 11.76 0 0 1 847.25 112.5 L 848.75 112.25 A 8.857 8.857 0 0 1 850.272 112.374 Q 851.139 112.525 851.851 112.861 A 5.222 5.222 0 0 1 852.125 113 A 2.836 2.836 0 0 1 852.584 113.306 Q 853.29 113.895 853.089 114.725 A 2.024 2.024 0 0 1 853 115 A 969.549 969.549 0 0 0 851.758 117.672 Q 850.781 119.781 850 121.5 A 106.192 106.192 0 0 0 849.133 123.457 Q 848.718 124.421 848.379 125.271 A 51.287 51.287 0 0 0 848 126.25 L 847.75 126.25 A 149.744 149.744 0 0 0 844.723 133.635 A 121.066 121.066 0 0 0 843.125 138.125 A 33.473 33.473 0 0 0 841.834 143.261 Q 841.471 145.466 841.471 147.565 A 23.729 23.729 0 0 0 841.5 148.75 L 841.75 155.5 A 8.085 8.085 0 0 1 841.103 158.01 A 7.128 7.128 0 0 1 840 159.75 A 27.919 27.919 0 0 1 839.302 160.255 Q 838.509 160.812 837.408 161.523 A 93.435 93.435 0 0 1 837.25 161.625 Q 835.944 162.464 834.082 163.373 A 53.74 53.74 0 0 1 832.75 164 Q 832.518 164.232 831.639 164.249 A 7.373 7.373 0 0 1 831.5 164.25 A 5.346 5.346 0 0 1 828.612 163.389 A 7.255 7.255 0 0 1 827.75 162.75 A 4.916 4.916 0 0 1 826.013 159.172 A 6.791 6.791 0 0 1 826 158.75 Q 826 154.162 831.536 142.893 A 179.603 179.603 0 0 1 833.25 139.5 Z M 850.5 101.5 A 1.13 1.13 0 0 0 851.085 102.503 Q 851.878 103 853.75 103 A 23.445 23.445 0 0 0 854.122 102.997 Q 856.891 102.953 859 102.25 Q 860.797 101.531 862.981 99.392 A 31.839 31.839 0 0 0 864.75 97.5 A 47.697 47.697 0 0 0 865.75 96.307 A 52.543 52.543 0 0 0 870.625 89.125 A 34.771 34.771 0 0 0 870.729 88.94 Q 872.326 86.087 872.911 83.764 A 10.32 10.32 0 0 0 873.25 81.25 Q 873.25 79.75 873 79.25 A 102.178 102.178 0 0 1 871.849 80.756 Q 869.375 83.93 867.352 85.957 A 24.154 24.154 0 0 1 865.375 87.75 Q 863.227 89.469 859.956 91.66 A 163.045 163.045 0 0 1 856.75 93.75 Q 854.25 95.5 852.375 97.875 A 23.468 23.468 0 0 0 852.347 97.91 Q 851.009 99.612 850.64 100.732 A 2.483 2.483 0 0 0 850.5 101.5 Z" id="11" vector-effect="non-scaling-stroke"/>
	</g>
</svg>
